# xmcd
#
# Track frame offsets: 
#        150
#        28757
#        50070
#        68239
#        87160
#        127920
#        141263
#
# Disc length: 2363 seconds
#
# Revision: 1
# Processed by: cddbd v1.5.2PL0 Copyright (c) Steve Scherf et al.
# Submitted via: ExactAudioCopy v1.0b1
#
DISCID=60093907
DTITLE=Otish Rush - Tops
DYEAR=1985
DGENRE=Chicago Blues
TTITLE0=Right Place, Wrong Time
TTITLE1=Crosscut Saw
TTITLE2=Tops
TTITLE3=Feel So Bad
TTITLE4=Gambler's Blues
TTITLE5=Keep On Lovin' Me Baby
TTITLE6=I Wonder Why
EXTD=
EXTT0=
EXTT1=
EXTT2=
EXTT3=
EXTT4=
EXTT5=
EXTT6=
PLAYORDER=
